<?xml version="1.0" encoding="UTF-8"?>
<svg version="1.1" xmlns="http://www.w3.org/2000/svg" width="48" height="48">
<path d="M0 0 C1.32 0 2.64 0 4 0 C4.6700834 2.12392506 5.33596797 4.24917524 6 6.375 C6.37125 7.55835938 6.7425 8.74171875 7.125 9.9609375 C8 13 8 13 8 15 C13.28 15 18.56 15 24 15 C22.81562131 19.73751475 21.87622747 20.15741989 17.9375 22.75 C17.01839844 23.36359375 16.09929688 23.9771875 15.15234375 24.609375 C14.44207031 25.06828125 13.73179688 25.5271875 13 26 C13.2165625 26.73605469 13.433125 27.47210937 13.65625 28.23046875 C13.9346875 29.20628906 14.213125 30.18210937 14.5 31.1875 C14.7784375 32.15042969 15.056875 33.11335938 15.34375 34.10546875 C15.96677608 36.85345876 16.12302812 39.19598416 16 42 C12.00449169 41.75028073 9.97966359 40.28990969 7 37.8125 C4.08376586 35.35265878 4.08376586 35.35265878 0.4375 35.3125 C-2.20510568 37.14199624 -4.82041404 38.99516574 -7.3515625 40.9765625 C-9 42 -9 42 -12 42 C-11.40984815 36.49191603 -10.43336231 31.35121931 -9 26 C-9.7940625 25.45730469 -10.588125 24.91460938 -11.40625 24.35546875 C-12.4271875 23.64003906 -13.448125 22.92460937 -14.5 22.1875 C-15.5209375 21.47980469 -16.541875 20.77210937 -17.59375 20.04296875 C-18.78484375 19.03169922 -18.78484375 19.03169922 -20 18 C-20 17.01 -20 16.02 -20 15 C-14.72 15 -9.44 15 -4 15 C-3.525625 13.081875 -3.05125 11.16375 -2.5625 9.1875 C-1.79317287 6.07674246 -1.01348676 3.04046027 0 0 Z " fill="#616161" transform="translate(22,3)"/>
</svg>
