<svg version="1.1" id="Layer_1" xmlns="http://www.w3.org/2000/svg" xmlns:xlink="http://www.w3.org/1999/xlink" x="0px" y="0px"
	 width="100%" viewBox="0 0 1600 1600" enable-background="new 0 0 1600 1600" xml:space="preserve">
<path fill="#000000" opacity="1.000000" stroke="none" 
	d="
M900.000000,1601.000000 
	C600.000061,1601.000000 300.500122,1601.000000 1.000121,1601.000000 
	C1.000080,1067.666870 1.000080,534.333618 1.000040,1.000335 
	C534.333069,1.000224 1067.666138,1.000224 1600.999512,1.000112 
	C1600.999634,534.333008 1600.999634,1067.666016 1600.999756,1600.999512 
	C1367.500000,1601.000000 1134.000000,1601.000000 900.000000,1601.000000 
M841.414917,135.000061 
	C836.633118,134.667709 831.852051,134.060623 827.069397,134.047852 
	C797.520508,133.968964 767.942200,133.263733 738.522949,136.994492 
	C720.880981,139.231720 703.209167,141.298477 685.634827,143.990417 
	C654.993225,148.683914 624.960510,156.220535 595.646729,166.158447 
	C574.142578,173.448715 553.025574,181.959824 532.009766,190.593155 
	C499.546051,203.929321 468.949768,220.973358 439.622101,240.127441 
	C422.260101,251.466644 405.411346,263.709778 389.142151,276.571472 
	C372.177307,289.983093 355.887939,304.298248 339.878510,318.851227 
	C329.935272,327.889862 320.921387,337.974579 311.747620,347.829224 
	C302.951630,357.278046 293.766632,366.492920 286.026367,376.769989 
	C269.385406,398.864868 252.979782,421.184021 237.545624,444.129608 
	C215.180191,477.379700 197.619110,513.291443 182.436386,550.312073 
	C169.172806,582.653198 158.806580,615.967651 151.001785,650.056824 
	C145.044373,676.077087 140.090698,702.271545 137.988144,728.923584 
	C136.558426,747.046814 134.663956,765.167908 134.182999,783.321838 
	C133.690384,801.916748 134.608429,820.551941 135.031219,839.166626 
	C135.181610,845.787537 135.286575,852.451233 136.112411,859.007202 
	C138.540421,878.281860 141.070068,897.550598 144.018951,916.751160 
	C148.599197,946.573730 155.738510,975.894531 165.481628,1004.374390 
	C174.534546,1030.836792 184.939529,1056.905151 196.098679,1082.559937 
	C208.225998,1110.440674 223.480148,1136.792847 239.947876,1162.361816 
	C259.181458,1192.225342 280.648834,1220.470825 304.510803,1246.757324 
	C318.001343,1261.618530 332.302734,1275.837158 347.134827,1289.362549 
	C363.840576,1304.596680 381.159607,1319.226318 398.918579,1333.222168 
	C427.603027,1355.827881 458.535034,1375.141846 490.985870,1391.844360 
	C509.171448,1401.204590 527.900940,1409.551636 546.625610,1417.810669 
	C575.475464,1430.535645 605.511780,1440.022583 636.017395,1447.705200 
	C663.773621,1454.695679 691.829468,1460.599365 720.461487,1463.080200 
	C738.548523,1464.647217 756.598511,1467.302856 774.709717,1467.780762 
	C804.237366,1468.559937 833.834778,1468.785767 863.249817,1465.006592 
	C883.173584,1462.446777 903.155029,1460.190430 922.962341,1456.904419 
	C950.909973,1452.267944 978.413147,1445.395630 1005.198792,1436.213013 
	C1026.993652,1428.741455 1048.477417,1420.280396 1069.794922,1411.517944 
	C1102.251953,1398.176636 1132.792969,1381.040039 1162.243408,1362.074585 
	C1187.905273,1345.548828 1212.361694,1327.335815 1235.408081,1307.228027 
	C1254.430298,1290.631226 1273.209229,1273.811035 1289.739990,1254.688232 
	C1304.426392,1237.699097 1319.250244,1220.791992 1333.147217,1203.165527 
	C1355.448486,1174.879395 1374.399902,1144.329834 1391.156860,1112.464844 
	C1410.779297,1075.150513 1427.574707,1036.590576 1438.955200,995.934326 
	C1445.687256,971.884766 1451.663574,947.580139 1456.797729,923.141846 
	C1460.276001,906.586060 1462.011108,889.634521 1463.949463,872.793640 
	C1465.704468,857.545471 1467.672607,842.213989 1467.773071,826.907593 
	C1467.938599,801.679565 1467.128784,776.419128 1465.852905,751.216797 
	C1464.994751,734.266785 1463.751709,717.184998 1460.674805,700.532898 
	C1455.690186,673.557373 1449.570435,646.760010 1442.996826,620.117615 
	C1433.965942,583.515625 1419.936646,548.632080 1403.786987,514.657959 
	C1386.682007,478.674011 1366.474731,444.482727 1343.134766,412.113647 
	C1324.543945,386.330902 1304.278931,361.990540 1282.381592,339.011902 
	C1273.214844,329.392426 1263.440796,320.335571 1253.703247,311.280701 
	C1244.371460,302.603149 1235.263184,293.549591 1225.113647,285.914917 
	C1203.008545,269.287018 1180.706909,252.855347 1157.747192,237.443451 
	C1124.478149,215.111252 1088.563599,197.550339 1051.543701,182.364990 
	C1019.356018,169.161743 986.278076,158.424622 952.244934,151.198822 
	C928.935059,146.249771 905.315186,142.675217 881.743652,139.077606 
	C868.716003,137.089264 855.502258,136.319412 841.414917,135.000061 
z"/>
<path fill="#616161" opacity="1.000000" stroke="none" 
	d="
M841.893677,135.000168 
	C855.502258,136.319412 868.716003,137.089264 881.743652,139.077606 
	C905.315186,142.675217 928.935059,146.249771 952.244934,151.198822 
	C986.278076,158.424622 1019.356018,169.161743 1051.543701,182.364990 
	C1088.563599,197.550339 1124.478149,215.111252 1157.747192,237.443451 
	C1180.706909,252.855347 1203.008545,269.287018 1225.113647,285.914917 
	C1235.263184,293.549591 1244.371460,302.603149 1253.703247,311.280701 
	C1263.440796,320.335571 1273.214844,329.392426 1282.381592,339.011902 
	C1304.278931,361.990540 1324.543945,386.330902 1343.134766,412.113647 
	C1366.474731,444.482727 1386.682007,478.674011 1403.786987,514.657959 
	C1419.936646,548.632080 1433.965942,583.515625 1442.996826,620.117615 
	C1449.570435,646.760010 1455.690186,673.557373 1460.674805,700.532898 
	C1463.751709,717.184998 1464.994751,734.266785 1465.852905,751.216797 
	C1467.128784,776.419128 1467.938599,801.679565 1467.773071,826.907593 
	C1467.672607,842.213989 1465.704468,857.545471 1463.949463,872.793640 
	C1462.011108,889.634521 1460.276001,906.586060 1456.797729,923.141846 
	C1451.663574,947.580139 1445.687256,971.884766 1438.955200,995.934326 
	C1427.574707,1036.590576 1410.779297,1075.150513 1391.156860,1112.464844 
	C1374.399902,1144.329834 1355.448486,1174.879395 1333.147217,1203.165527 
	C1319.250244,1220.791992 1304.426392,1237.699097 1289.739990,1254.688232 
	C1273.209229,1273.811035 1254.430298,1290.631226 1235.408081,1307.228027 
	C1212.361694,1327.335815 1187.905273,1345.548828 1162.243408,1362.074585 
	C1132.792969,1381.040039 1102.251953,1398.176636 1069.794922,1411.517944 
	C1048.477417,1420.280396 1026.993652,1428.741455 1005.198792,1436.213013 
	C978.413147,1445.395630 950.909973,1452.267944 922.962341,1456.904419 
	C903.155029,1460.190430 883.173584,1462.446777 863.249817,1465.006592 
	C833.834778,1468.785767 804.237366,1468.559937 774.709717,1467.780762 
	C756.598511,1467.302856 738.548523,1464.647217 720.461487,1463.080200 
	C691.829468,1460.599365 663.773621,1454.695679 636.017395,1447.705200 
	C605.511780,1440.022583 575.475464,1430.535645 546.625610,1417.810669 
	C527.900940,1409.551636 509.171448,1401.204590 490.985870,1391.844360 
	C458.535034,1375.141846 427.603027,1355.827881 398.918579,1333.222168 
	C381.159607,1319.226318 363.840576,1304.596680 347.134827,1289.362549 
	C332.302734,1275.837158 318.001343,1261.618530 304.510803,1246.757324 
	C280.648834,1220.470825 259.181458,1192.225342 239.947876,1162.361816 
	C223.480148,1136.792847 208.225998,1110.440674 196.098679,1082.559937 
	C184.939529,1056.905151 174.534546,1030.836792 165.481628,1004.374390 
	C155.738510,975.894531 148.599197,946.573730 144.018951,916.751160 
	C141.070068,897.550598 138.540421,878.281860 136.112411,859.007202 
	C135.286575,852.451233 135.181610,845.787537 135.031219,839.166626 
	C134.608429,820.551941 133.690384,801.916748 134.182999,783.321838 
	C134.663956,765.167908 136.558426,747.046814 137.988144,728.923584 
	C140.090698,702.271545 145.044373,676.077087 151.001785,650.056824 
	C158.806580,615.967651 169.172806,582.653198 182.436386,550.312073 
	C197.619110,513.291443 215.180191,477.379700 237.545624,444.129608 
	C252.979782,421.184021 269.385406,398.864868 286.026367,376.769989 
	C293.766632,366.492920 302.951630,357.278046 311.747620,347.829224 
	C320.921387,337.974579 329.935272,327.889862 339.878510,318.851227 
	C355.887939,304.298248 372.177307,289.983093 389.142151,276.571472 
	C405.411346,263.709778 422.260101,251.466644 439.622101,240.127441 
	C468.949768,220.973358 499.546051,203.929321 532.009766,190.593155 
	C553.025574,181.959824 574.142578,173.448715 595.646729,166.158447 
	C624.960510,156.220535 654.993225,148.683914 685.634827,143.990417 
	C703.209167,141.298477 720.880981,139.231720 738.522949,136.994492 
	C767.942200,133.263733 797.520508,133.968964 827.069397,134.047852 
	C831.852051,134.060623 836.633118,134.667709 841.893677,135.000168 
M1105.495361,941.996826 
	C1085.620728,932.318359 1066.254517,921.346619 1045.744385,913.285095 
	C1019.443726,902.947693 992.445679,894.201050 965.337830,886.150513 
	C936.471924,877.577942 906.928040,871.563782 876.982666,867.898254 
	C859.811707,865.796387 842.645386,862.837585 825.410706,862.266724 
	C799.236633,861.399597 772.967285,861.029663 746.890137,864.939819 
	C729.959045,867.478516 712.776123,868.758118 696.078247,872.337952 
	C668.284363,878.296753 640.482056,884.609802 613.241455,892.661926 
	C573.666992,904.359680 535.222778,919.264526 499.441132,940.243469 
	C472.526459,956.023682 447.260895,973.811035 427.702515,998.703674 
	C414.405670,1015.627319 405.064545,1034.258179 402.221619,1055.703491 
	C401.643524,1060.064453 401.661133,1065.854614 404.027161,1069.034058 
	C418.288696,1088.197876 432.429901,1107.583496 448.322632,1125.365479 
	C465.535339,1144.624390 484.711609,1162.029785 505.210083,1178.004883 
	C528.317505,1196.013062 552.666687,1211.991089 578.481934,1225.651001 
	C607.838074,1241.184448 638.589905,1253.373535 670.624756,1262.423950 
	C704.217285,1271.914429 738.415833,1277.897949 773.171875,1279.735840 
	C793.542908,1280.812988 814.115601,1280.257324 834.474609,1278.762207 
	C854.629822,1277.281982 874.738708,1274.327271 894.676208,1270.903442 
	C934.206421,1264.115234 971.723389,1250.798584 1007.824280,1233.532227 
	C1033.017212,1221.483032 1057.243408,1207.615601 1079.551758,1190.774658 
	C1095.730103,1178.561401 1111.595947,1165.848145 1126.769531,1152.418335 
	C1137.816284,1142.641113 1147.988892,1131.750366 1157.678589,1120.597900 
	C1169.893188,1106.539185 1181.441406,1091.879395 1192.796021,1077.109009 
	C1196.260742,1072.602051 1200.466309,1068.219849 1200.119141,1061.369385 
	C1199.208496,1043.398438 1193.122437,1027.254761 1183.709961,1012.253601 
	C1175.063721,998.473328 1164.568848,986.299744 1152.231934,975.527649 
	C1137.869507,962.986755 1122.511475,952.006042 1105.495361,941.996826 
M696.068420,364.500122 
	C678.508362,375.939911 662.649597,389.271118 649.049805,405.339355 
	C635.279846,421.608704 624.098450,439.406708 616.132996,459.127747 
	C609.261353,476.140564 604.694031,493.787811 602.919861,512.136475 
	C601.107727,530.877502 601.172058,549.609558 604.268311,568.139038 
	C608.297852,592.253418 616.891235,614.815735 629.394043,635.895813 
	C641.239014,655.866638 655.851013,673.529846 673.847473,688.125305 
	C688.860107,700.301025 705.155212,710.605042 723.137695,718.077209 
	C741.673096,725.779175 760.896667,730.963440 780.815430,732.801819 
	C792.117859,733.844910 803.598022,733.189087 814.991516,732.964294 
	C830.258667,732.663147 845.041138,729.390503 859.601135,724.984558 
	C890.701416,715.573425 917.651306,699.125488 940.867432,676.563293 
	C959.454346,658.499939 973.536255,637.240906 984.106506,613.620667 
	C993.007996,593.729553 998.434509,572.781250 999.726257,551.175903 
	C1000.879578,531.884827 1000.337158,512.549744 996.228088,493.304016 
	C988.699585,458.042206 972.830078,427.247131 948.944519,400.587494 
	C928.322937,377.571014 903.418823,360.325043 874.641541,348.942413 
	C853.012756,340.387268 830.550842,335.383759 807.220154,335.070374 
	C798.944397,334.959198 790.548340,334.927277 782.400940,336.150085 
	C768.940552,338.170258 755.536621,340.815277 742.293823,343.972717 
	C725.930115,347.874298 711.281311,356.003876 696.068420,364.500122 
z"/>
<path fill="#000000" opacity="1.000000" stroke="none" 
	d="
M1105.773071,942.239136 
	C1122.511475,952.006042 1137.869507,962.986755 1152.231934,975.527649 
	C1164.568848,986.299744 1175.063721,998.473328 1183.709961,1012.253601 
	C1193.122437,1027.254761 1199.208496,1043.398438 1200.119141,1061.369385 
	C1200.466309,1068.219849 1196.260742,1072.602051 1192.796021,1077.109009 
	C1181.441406,1091.879395 1169.893188,1106.539185 1157.678589,1120.597900 
	C1147.988892,1131.750366 1137.816284,1142.641113 1126.769531,1152.418335 
	C1111.595947,1165.848145 1095.730103,1178.561401 1079.551758,1190.774658 
	C1057.243408,1207.615601 1033.017212,1221.483032 1007.824280,1233.532227 
	C971.723389,1250.798584 934.206421,1264.115234 894.676208,1270.903442 
	C874.738708,1274.327271 854.629822,1277.281982 834.474609,1278.762207 
	C814.115601,1280.257324 793.542908,1280.812988 773.171875,1279.735840 
	C738.415833,1277.897949 704.217285,1271.914429 670.624756,1262.423950 
	C638.589905,1253.373535 607.838074,1241.184448 578.481934,1225.651001 
	C552.666687,1211.991089 528.317505,1196.013062 505.210083,1178.004883 
	C484.711609,1162.029785 465.535339,1144.624390 448.322632,1125.365479 
	C432.429901,1107.583496 418.288696,1088.197876 404.027161,1069.034058 
	C401.661133,1065.854614 401.643524,1060.064453 402.221619,1055.703491 
	C405.064545,1034.258179 414.405670,1015.627319 427.702515,998.703674 
	C447.260895,973.811035 472.526459,956.023682 499.441132,940.243469 
	C535.222778,919.264526 573.666992,904.359680 613.241455,892.661926 
	C640.482056,884.609802 668.284363,878.296753 696.078247,872.337952 
	C712.776123,868.758118 729.959045,867.478516 746.890137,864.939819 
	C772.967285,861.029663 799.236633,861.399597 825.410706,862.266724 
	C842.645386,862.837585 859.811707,865.796387 876.982666,867.898254 
	C906.928040,871.563782 936.471924,877.577942 965.337830,886.150513 
	C992.445679,894.201050 1019.443726,902.947693 1045.744385,913.285095 
	C1066.254517,921.346619 1085.620728,932.318359 1105.773071,942.239136 
z"/>
<path fill="#000000" opacity="1.000000" stroke="none" 
	d="
M696.380005,364.304077 
	C711.281311,356.003876 725.930115,347.874298 742.293823,343.972717 
	C755.536621,340.815277 768.940552,338.170258 782.400940,336.150085 
	C790.548340,334.927277 798.944397,334.959198 807.220154,335.070374 
	C830.550842,335.383759 853.012756,340.387268 874.641541,348.942413 
	C903.418823,360.325043 928.322937,377.571014 948.944519,400.587494 
	C972.830078,427.247131 988.699585,458.042206 996.228088,493.304016 
	C1000.337158,512.549744 1000.879578,531.884827 999.726257,551.175903 
	C998.434509,572.781250 993.007996,593.729553 984.106506,613.620667 
	C973.536255,637.240906 959.454346,658.499939 940.867432,676.563293 
	C917.651306,699.125488 890.701416,715.573425 859.601135,724.984558 
	C845.041138,729.390503 830.258667,732.663147 814.991516,732.964294 
	C803.598022,733.189087 792.117859,733.844910 780.815430,732.801819 
	C760.896667,730.963440 741.673096,725.779175 723.137695,718.077209 
	C705.155212,710.605042 688.860107,700.301025 673.847473,688.125305 
	C655.851013,673.529846 641.239014,655.866638 629.394043,635.895813 
	C616.891235,614.815735 608.297852,592.253418 604.268311,568.139038 
	C601.172058,549.609558 601.107727,530.877502 602.919861,512.136475 
	C604.694031,493.787811 609.261353,476.140564 616.132996,459.127747 
	C624.098450,439.406708 635.279846,421.608704 649.049805,405.339355 
	C662.649597,389.271118 678.508362,375.939911 696.380005,364.304077 
z"/>
</svg>