<?xml version="1.0" encoding="UTF-8"?>
<svg version="1.1" xmlns="http://www.w3.org/2000/svg" width="48" height="48">
<path d="M0 0 C2.35493914 1.45422524 3.34597718 2.71858921 5 5 C4.34 5.66 3.68 6.32 3 7 C1.375 6.6875 1.375 6.6875 -1 6 C-3.66156983 5.61249175 -6.3280489 5.31172763 -9 5 C-8.96087605 7.39637208 -8.96087605 7.39637208 -8 10 C-5.05083787 12.01098979 -1.98221852 13.47721015 1.21484375 15.05859375 C4.60445541 17.42133848 5.22482728 18.99671074 6 23 C5.1875 25.6875 5.1875 25.6875 4 28 C3.67 28.99 3.34 29.98 3 31 C3.33 31.66 3.66 32.32 4 33 C4.51417818 36.85633638 4.28255318 38.5518122 2.1875 41.875 C-2.44354308 44.96236205 -6.58306648 44.7796486 -12 44 C-15.1875 42.5 -15.1875 42.5 -17 41 C-16.67 39.68 -16.34 38.36 -16 37 C-12 37 -12 37 -10.0625 38.0625 C-7.36623655 39.2880743 -5.79531511 38.77647642 -3 38 C-3 36.68 -3 35.36 -3 34 C-3.84304687 33.59007812 -4.68609375 33.18015625 -5.5546875 32.7578125 C-6.65039062 32.21898437 -7.74609375 31.68015625 -8.875 31.125 C-10.51082031 30.32449219 -10.51082031 30.32449219 -12.1796875 29.5078125 C-15.24624407 27.86835151 -16.66897035 27.02067476 -17.75 23.6875 C-18.0462931 20.50234918 -17.32743601 18.87611135 -16 16 C-15.03475759 13.20079702 -15.04177148 10.91996772 -15.1875 8 C-15.1875 5.17443447 -15.0386233 4.0735682 -13.6875 1.5 C-9.31013911 -0.94317817 -4.87912156 -0.87333389 0 0 Z M-10 17 C-10.66 17.66 -11.32 18.32 -12 19 C-12.14768913 21.51749828 -12.14768913 21.51749828 -11 24 C-7.33634907 26.36101949 -5.40218532 27 -1 27 C-0.67 25.02 -0.34 23.04 0 21 C-1.093125 20.34 -2.18625 19.68 -3.3125 19 C-4.23482422 18.443125 -4.23482422 18.443125 -5.17578125 17.875 C-7.11361926 16.78376001 -7.11361926 16.78376001 -10 17 Z " fill="#616161" transform="translate(30,2)"/>
</svg>
