<?xml version="1.0" encoding="UTF-8"?>
<svg version="1.1" xmlns="http://www.w3.org/2000/svg" width="48" height="48">
<path d="M0 0 C4.01684726 2.93915653 6.95784056 6.06102168 8.5625 10.875 C9.04764482 16.38656333 9.32987316 21.25171062 6.9375 26.3125 C1.82396257 31.82973776 -1.66766612 34.69258868 -9.3125 35.0625 C-12.99504995 35.1445001 -15.98797735 34.11820403 -19.4375 32.875 C-20.10136719 33.60847656 -20.76523437 34.34195313 -21.44921875 35.09765625 C-22.33222656 36.03480469 -23.21523438 36.97195312 -24.125 37.9375 C-25.43017578 39.34708984 -25.43017578 39.34708984 -26.76171875 40.78515625 C-29.4375 42.875 -29.4375 42.875 -32.26953125 42.68359375 C-32.98496094 42.41675781 -33.70039062 42.14992187 -34.4375 41.875 C-35.24609375 39.70703125 -35.24609375 39.70703125 -35.4375 36.875 C-33.34765625 34.19921875 -33.34765625 34.19921875 -30.5 31.5625 C-29.56285156 30.67949219 -28.62570313 29.79648437 -27.66015625 28.88671875 C-26.55994141 27.89091797 -26.55994141 27.89091797 -25.4375 26.875 C-25.76105469 25.96621094 -26.08460937 25.05742187 -26.41796875 24.12109375 C-28.10499502 18.74975725 -27.92898521 14.5518319 -26.375 9.25 C-20.54345259 -0.90817935 -11.04319823 -3.6141376 0 0 Z M-19.4375 6.875 C-21.91656753 10.10507917 -23.40379308 13.06401932 -23.48046875 17.18359375 C-22.67194516 22.45232439 -20.6311568 25.61373113 -16.359375 28.7734375 C-13.2301281 30.56703023 -11.04415173 31.00154918 -7.4375 30.875 C-2.98638969 29.51121996 -0.0678796 27.56841756 3.0625 24.125 C5.0355713 19.85001218 5.08332865 17.56245782 4.5625 12.875 C2.88563464 9.1858962 0.60565601 6.53776151 -2.4375 3.875 C-9.11693859 1.64852047 -14.18355628 2.09868752 -19.4375 6.875 Z " fill="#616161" transform="translate(37.4375,3.125)"/>
</svg>
